<?xml version="1.0" encoding="UTF-8"?>
<!DOCTYPE svg PUBLIC "-//W3C//DTD SVG 1.1//EN" "http://www.w3.org/Graphics/SVG/1.1/DTD/svg11.dtd">
<svg xmlns="http://www.w3.org/2000/svg" version="1.1" width="512px" height="512px" style="shape-rendering:geometricPrecision; text-rendering:geometricPrecision; image-rendering:optimizeQuality; fill-rule:evenodd; clip-rule:evenodd" xmlns:xlink="http://www.w3.org/1999/xlink">
<g><path style="opacity:0.592" fill="#e66f87" d="M 256.5,111.5 C 255.833,111.5 255.167,111.5 254.5,111.5C 255.167,108.833 255.833,108.833 256.5,111.5 Z"/></g>
<g><path style="opacity:1" fill="#da1f2a" d="M 254.5,111.5 C 255.167,111.5 255.833,111.5 256.5,111.5C 260.947,119.557 265.28,127.724 269.5,136C 279.242,137.296 288.909,138.963 298.5,141C 291.667,147.833 284.833,154.667 278,161.5C 279.049,170.804 280.216,180.138 281.5,189.5C 281.5,190.167 281.167,190.5 280.5,190.5C 272.197,186.554 263.864,182.554 255.5,178.5C 247.136,182.554 238.803,186.554 230.5,190.5C 229.833,190.5 229.5,190.167 229.5,189.5C 230.907,180.156 232.074,170.823 233,161.5C 226.167,154.667 219.333,147.833 212.5,141C 222.091,138.963 231.758,137.296 241.5,136C 245.72,127.724 250.053,119.557 254.5,111.5 Z"/></g>
<g><path style="opacity:1" fill="#da1f2b" d="M 136.5,164.5 C 136.533,168.869 136.2,173.202 135.5,177.5C 129.866,187.082 121.866,189.582 111.5,185C 102.659,177.431 101.159,168.598 107,158.5C 114.512,151.565 122.679,150.732 131.5,156C 134.091,158.357 135.758,161.191 136.5,164.5 Z"/></g>
<g><path style="opacity:1" fill="#da1f2b" d="M 385.5,152.5 C 401.84,151.672 409.007,159.338 407,175.5C 402.265,185.951 394.432,189.451 383.5,186C 373.737,180.295 370.903,172.129 375,161.5C 377.468,157.199 380.968,154.199 385.5,152.5 Z"/></g>
<g><path style="opacity:0.741" fill="#e34e58" d="M 136.5,164.5 C 137.161,166.134 137.494,167.967 137.5,170C 137.7,172.866 137.033,175.366 135.5,177.5C 136.2,173.202 136.533,168.869 136.5,164.5 Z"/></g>
<g><path style="opacity:0.11" fill="#f3bcbf" d="M 229.5,189.5 C 229.5,190.167 229.833,190.5 230.5,190.5C 230.44,191.043 230.107,191.376 229.5,191.5C 228.227,190.743 228.227,190.077 229.5,189.5 Z"/></g>
<g><path style="opacity:0.118" fill="#f4bbbf" d="M 281.5,189.5 C 282.043,189.56 282.376,189.893 282.5,190.5C 281.743,191.773 281.077,191.773 280.5,190.5C 281.167,190.5 281.5,190.167 281.5,189.5 Z"/></g>
<g><path style="opacity:0.773" fill="#eb7e84" d="M 398.5,216.5 C 399.055,212.988 398.388,209.988 396.5,207.5C 396.811,206.522 397.478,205.855 398.5,205.5C 399.808,209.315 399.808,212.981 398.5,216.5 Z"/></g>
<g><path style="opacity:1" fill="#d91a28" d="M 131.5,400.5 C 129.167,400.5 126.833,400.5 124.5,400.5C 124.784,398.585 124.451,396.919 123.5,395.5C 118.917,332.179 115.251,268.846 112.5,205.5C 132.664,218.75 152.997,231.75 173.5,244.5C 176.145,294.815 177.979,345.148 179,395.5C 163.243,397.459 147.409,399.126 131.5,400.5 Z"/></g>
<g><path style="opacity:1" fill="#d91a28" d="M 396.5,207.5 C 398.388,209.988 399.055,212.988 398.5,216.5C 395.041,278.178 391.374,339.845 387.5,401.5C 368.938,399.661 350.438,397.661 332,395.5C 333.021,345.148 334.855,294.815 337.5,244.5C 357.054,231.895 376.721,219.561 396.5,207.5 Z"/></g>
<g><path style="opacity:1" fill="#d91726" d="M 253.5,212.5 C 257.781,213.136 261.781,214.636 265.5,217C 283.202,226.849 300.868,236.682 318.5,246.5C 316.599,295.795 314.932,345.128 313.5,394.5C 274.789,393.188 236.289,393.188 198,394.5C 196.075,345.139 194.242,295.806 192.5,246.5C 212.699,234.901 233.033,223.568 253.5,212.5 Z"/></g>
<g><path style="opacity:0.455" fill="#ea757c" d="M 123.5,395.5 C 124.451,396.919 124.784,398.585 124.5,400.5C 126.833,400.5 129.167,400.5 131.5,400.5C 129.052,401.473 126.385,401.806 123.5,401.5C 123.5,399.5 123.5,397.5 123.5,395.5 Z"/></g>
</svg>
